<?xml version="1.0" encoding="utf-8"?>
<svg viewBox="0 0 45 45" fill="none" xmlns="http://www.w3.org/2000/svg">
  <circle cx="22.5" cy="22.5" r="22" stroke="#101A24"/>
  <path d="M 18.5 13.5 C 15.743 13.5 13.5 15.743 13.5 18.5 L 13.5 26.5 C 13.5 29.257 15.743 31.5 18.5 31.5 L 26.5 31.5 C 29.257 31.5 31.5 29.257 31.5 26.5 L 31.5 18.5 C 31.5 15.743 29.257 13.5 26.5 13.5 L 18.5 13.5 Z M 18.5 15.5 L 26.5 15.5 C 28.154 15.5 29.5 16.846 29.5 18.5 L 29.5 26.5 C 29.5 28.154 28.154 29.5 26.5 29.5 L 18.5 29.5 C 16.846 29.5 15.5 28.154 15.5 26.5 L 15.5 18.5 C 15.5 16.846 16.846 15.5 18.5 15.5 Z M 27.5 16.5 C 27.234 16.5 26.98 16.605 26.793 16.793 C 26.605 16.98 26.5 17.235 26.5 17.5 C 26.5 17.765 26.605 18.02 26.793 18.207 C 26.98 18.395 27.234 18.5 27.5 18.5 C 27.765 18.5 28.019 18.395 28.207 18.207 C 28.394 18.02 28.5 17.765 28.5 17.5 C 28.5 17.235 28.394 16.98 28.207 16.793 C 28.019 16.605 27.765 16.5 27.5 16.5 Z M 22.5 17.5 C 19.743 17.5 17.5 19.743 17.5 22.5 C 17.5 25.257 19.743 27.5 22.5 27.5 C 25.257 27.5 27.5 25.257 27.5 22.5 C 27.5 19.743 25.257 17.5 22.5 17.5 Z M 22.5 19.5 C 24.154 19.5 25.5 20.846 25.5 22.5 C 25.5 24.154 24.154 25.5 22.5 25.5 C 20.846 25.5 19.5 24.154 19.5 22.5 C 19.5 20.846 20.846 19.5 22.5 19.5 Z" fill="black"/>
</svg>